<svg xmlns="http://www.w3.org/2000/svg" xmlns:v="https://svgstorm.com"
viewBox = "0 0 200 200"
width="200"
height="200">
<g fill="white" fill-opacity="0.0" stroke="#000000" stroke-opacity="0.00" stroke-width="0.3"><path d="
M 0.00 200.00 
L 200.00 200.00
L 200.00 0.00
L 0.00 0.00
L 0.00 200.00
M 110.00 68.00 
C 112.91 69.43 115.21 70.98 118.00 72.00
C 120.70 72.99 121.74 74.45 125.00 73.00
C 125.62 76.93 126.18 79.80 127.00 84.00
C 128.21 86.05 130.10 86.48 131.00 89.00
C 131.66 90.84 131.34 93.21 132.00 95.00
C 132.81 96.73 135.10 97.09 136.00 99.00
C 136.19 99.41 136.19 100.59 136.00 101.00
C 135.10 102.91 132.86 103.28 132.00 105.00
C 131.30 106.77 131.62 109.16 131.00 111.00
C 130.15 113.51 128.20 114.05 127.00 116.00
C 125.94 118.24 125.63 121.54 125.00 124.00
C 123.69 129.15 115.68 127.66 110.00 132.00
C 109.68 132.24 109.00 132.00 109.00 132.00
C 107.25 134.29 104.28 133.49 102.00 135.00
C 100.74 136.12 101.88 137.18 99.00 137.00
C 97.33 136.89 95.02 133.87 93.00 133.00
C 92.28 132.81 90.63 132.30 90.00 132.00
C 85.96 130.04 82.62 127.80 78.00 127.00
C 77.51 126.92 76.45 127.15 76.00 127.00
C 72.49 125.86 75.38 123.79 75.00 122.00
C 72.78 115.08 67.42 110.20 68.00 102.00
C 66.07 102.49 63.63 101.26 64.00 99.00
C 64.03 97.35 67.32 96.28 68.00 95.00
C 70.80 88.45 75.50 80.04 74.00 74.00
C 77.20 72.55 79.94 74.30 83.00 72.00
C 85.26 71.05 87.56 69.05 90.00 68.00
C 91.51 67.35 93.49 67.58 95.00 67.00
C 96.47 66.28 97.13 63.18 99.00 63.00
C 100.49 62.86 107.52 66.79 110.00 68.00 Z"/>
</g>
<g fill="None" fill-opacity="0.0" stroke="#6E6E6E" stroke-opacity="0.85" stroke-width="0.3"><path d="
M 95.00 67.00 
C 97.03 66.22 98.44 65.49 99.00 63.00
C 97.13 63.18 96.47 66.28 95.00 67.00 Z"/>
</g>
<g fill="None" fill-opacity="0.0" stroke="#D0D0D0" stroke-opacity="0.96" stroke-width="0.3"><path d="
M 95.00 67.00 
C 93.49 67.58 91.51 67.35 90.00 68.00
C 86.99 69.66 86.66 70.88 83.00 72.00
C 79.94 74.30 77.20 72.55 74.00 74.00
C 75.50 80.04 70.80 88.45 68.00 95.00
C 67.16 96.96 66.53 98.49 64.00 99.00
C 63.63 101.26 66.07 102.49 68.00 102.00
C 67.42 110.20 72.78 115.08 75.00 122.00
C 75.33 123.02 74.63 125.62 76.00 127.00
C 76.45 127.15 77.51 126.92 78.00 127.00
C 82.41 125.24 86.41 129.74 90.00 132.00
C 90.63 132.30 92.28 132.81 93.00 133.00
C 94.19 133.31 96.27 132.96 97.22 133.78 C 98.17 134.60 98.12 136.82 99.00 137.00
C 101.88 137.18 100.74 136.12 102.00 135.00
C 104.11 133.12 106.03 132.55 109.00 132.00
C 109.00 132.00 109.68 132.24 110.00 132.00
C 114.18 126.02 122.35 128.89 125.00 124.00
C 125.63 121.54 125.94 118.24 127.00 116.00
C 127.90 114.10 130.27 112.67 131.00 111.00
C 131.62 109.16 131.30 106.77 132.00 105.00
C 133.08 102.30 133.84 102.75 136.00 101.00
C 136.19 100.59 136.19 99.41 136.00 99.00
C 133.78 97.20 133.05 97.83 132.00 95.00
C 131.34 93.21 131.66 90.84 131.00 89.00
C 130.21 87.28 127.85 85.88 127.00 84.00
C 126.18 79.80 125.62 76.93 125.00 73.00
C 121.74 74.45 120.70 72.99 118.00 72.00
C 113.55 70.83 113.54 70.24 110.00 68.00
C 107.52 66.79 100.49 62.86 99.00 63.00
C 98.44 65.49 97.03 66.22 95.00 67.00
M 89.00 73.00 
C 88.01 71.12 92.55 67.76 95.00 68.00
C 96.00 68.02 97.00 67.98 98.00 68.00
C 98.47 71.45 95.15 73.71 95.00 77.00
C 92.91 75.68 91.40 73.71 89.00 73.00
M 112.00 72.00 
C 110.17 73.97 107.75 76.42 105.00 77.00
C 103.78 73.93 102.65 70.91 101.00 68.00
C 105.28 67.43 108.96 69.29 112.00 72.00
M 99.00 71.00 
C 102.01 71.18 106.70 80.88 100.75 81.75 C 94.80 82.63 96.81 73.62 99.00 71.00
M 92.00 85.00 
C 86.29 85.24 82.27 80.10 79.00 76.00
C 84.69 69.41 96.49 77.15 92.00 85.00
M 120.00 78.00 
C 119.44 79.91 115.75 83.29 114.00 84.00
C 112.55 84.59 110.50 84.29 109.00 85.00
C 100.64 76.96 120.30 67.73 120.00 78.00
M 84.00 84.00 
C 84.94 86.27 84.40 89.56 85.00 92.00
C 79.68 94.85 75.65 90.11 75.00 85.00
C 74.42 82.24 73.67 80.89 77.00 79.00
C 77.25 78.74 77.71 77.94 78.00 78.00
C 79.85 78.39 83.33 82.38 84.00 84.00
M 115.00 92.00 
C 114.72 86.18 118.09 81.97 122.00 78.00
C 128.93 81.81 122.92 96.75 115.00 92.00
M 107.00 86.00 
C 101.78 87.03 99.76 83.08 104.00 80.00
C 106.19 81.04 107.12 83.67 107.00 86.00
M 93.00 86.00 
C 94.37 75.79 103.61 87.42 93.00 86.00
M 74.00 86.00 
C 74.18 89.26 77.46 91.53 77.00 95.00
C 74.05 95.13 71.98 97.88 69.00 98.00
C 70.50 94.03 69.13 88.12 74.00 86.00
M 86.00 86.00 
C 95.79 85.38 85.45 95.84 86.00 86.00
M 114.00 86.00 
C 114.71 96.14 103.89 84.82 114.00 86.00
M 103.00 88.00 
C 108.00 89.51 110.33 90.72 112.00 96.00
C 112.94 98.96 113.08 101.06 112.00 104.00
C 111.51 107.04 107.02 111.52 104.00 112.00
C 101.08 113.08 98.87 113.09 96.00 112.00
C 92.48 110.67 89.32 107.49 88.00 104.00
C 86.88 101.03 87.06 98.90 88.00 96.00
C 89.63 90.98 93.50 87.35 99.00 87.00
C 100.94 86.88 101.71 87.61 103.00 88.00
M 130.00 95.00 
C 130.00 97.82 131.43 97.66 128.00 97.00
C 126.41 97.17 124.85 94.32 123.00 95.00
C 124.00 92.26 124.07 87.16 128.00 87.00
C 129.14 89.52 130.24 92.08 130.00 95.00
M 86.00 93.00 
C 88.16 103.79 75.94 94.07 86.00 93.00
M 117.00 94.00 
C 117.81 94.17 118.93 95.16 119.00 96.00
C 119.22 98.57 114.98 99.81 114.00 97.00
C 113.85 96.55 114.15 95.45 114.00 95.00
C 113.10 92.37 114.85 92.82 117.00 94.00
M 82.00 99.00 
C 82.36 101.32 79.53 102.06 79.00 104.00
C 76.66 101.72 71.42 102.75 71.00 99.00
C 73.25 99.14 74.71 96.84 77.00 97.00
C 78.44 96.74 81.48 95.65 82.00 99.00
M 129.00 99.00 
C 129.27 101.92 117.70 105.66 118.08 99.92 C 118.47 94.18 126.45 97.59 129.00 99.00
M 86.00 103.00 
C 86.10 103.99 85.92 105.01 86.00 106.00
C 84.17 106.23 82.53 105.93 81.00 105.00
C 79.25 103.28 85.57 98.84 86.00 103.00
M 120.00 104.00 
C 118.69 105.98 115.91 105.75 114.00 107.00
C 112.47 101.47 116.98 99.82 120.00 104.00
M 123.00 107.00 
C 122.34 105.69 121.84 106.29 123.00 105.00
C 124.90 102.91 128.90 102.89 131.00 101.00
C 130.57 105.07 130.96 112.01 126.00 113.00
C 124.59 111.19 125.17 108.16 123.00 107.00
M 78.00 105.00 
C 75.64 107.47 75.88 112.61 72.00 113.00
C 69.69 109.71 70.71 105.46 69.00 102.00
C 72.45 101.53 74.71 104.85 78.00 105.00
M 81.00 107.00 
C 82.76 106.91 84.08 108.56 86.00 108.00
C 84.78 110.17 83.58 112.34 84.00 115.00
C 83.09 117.00 80.79 118.93 79.00 120.00
C 72.80 123.71 75.06 111.37 78.00 108.00
C 79.77 105.98 79.12 106.70 81.00 107.00
M 121.00 107.00 
C 124.98 109.71 127.38 119.69 122.00 122.00
C 117.99 117.96 114.79 113.87 115.00 108.00
C 116.56 108.41 117.69 107.54 119.00 107.00
C 120.42 106.48 119.56 105.89 121.00 107.00
M 86.00 114.00 
C 85.89 104.35 95.51 114.48 86.00 114.00
M 114.00 114.00 
C 104.54 114.54 114.03 104.31 114.00 114.00
M 96.00 120.00 
C 94.53 118.51 93.26 116.22 93.00 114.00
C 98.53 112.47 100.18 116.98 96.00 120.00
M 106.00 118.00 
C 103.87 121.98 98.93 115.31 103.00 114.00
C 104.21 113.61 105.76 114.30 107.00 114.00
C 107.37 115.54 105.57 116.40 106.00 118.00
M 92.00 117.00 
C 94.37 119.51 94.15 120.69 92.00 123.00
C 89.15 126.07 77.77 129.01 80.00 122.00
C 80.63 120.03 84.20 116.78 86.00 116.00
C 89.29 114.57 90.14 115.03 92.00 117.00
M 114.00 116.00 
C 115.48 116.62 121.05 121.33 121.00 123.00
C 120.71 131.82 100.13 122.53 108.00 115.00
C 110.23 114.48 111.73 116.54 114.00 116.00
M 101.00 128.00 
C 99.36 130.17 100.67 130.06 99.00 128.00
C 93.76 123.22 98.53 114.48 104.00 121.00
C 102.85 123.30 102.43 125.80 101.00 128.00
M 93.00 131.00 
C 91.04 130.37 89.67 129.28 88.00 128.00
C 89.19 125.44 91.96 124.60 94.00 123.00
C 97.39 123.54 97.24 130.03 99.00 132.00
C 96.77 132.52 95.27 130.46 93.00 131.00
M 111.00 126.00 
C 111.65 131.77 104.72 131.13 101.00 132.00
C 102.93 126.42 105.18 120.45 111.00 126.00 Z"/>
</g>
<g fill="None" fill-opacity="0.0" stroke="#565656" stroke-opacity="0.39" stroke-width="0.3"><path d="
M 83.00 72.00 
C 86.66 70.88 86.99 69.66 90.00 68.00
C 87.56 69.05 85.26 71.05 83.00 72.00 Z"/>
</g>
<g fill="None" fill-opacity="0.0" stroke="#6A6A6A" stroke-opacity="0.47" stroke-width="0.3"><path d="
M 89.00 73.00 
C 89.91 71.59 93.54 67.97 95.00 68.00
C 92.55 67.76 88.01 71.12 89.00 73.00 Z"/>
</g>
<g fill="None" fill-opacity="0.0" stroke="#000000" stroke-opacity="0.00" stroke-width="0.3"><path d="
M 89.00 73.00 
C 91.40 73.71 92.91 75.68 95.00 77.00
C 95.15 73.71 98.47 71.45 98.00 68.00
C 97.00 67.98 96.00 68.02 95.00 68.00
C 93.54 67.97 89.91 71.59 89.00 73.00 Z"/>
</g>
<g fill="None" fill-opacity="0.0" stroke="#020202" stroke-opacity="0.06" stroke-width="0.3"><path d="
M 112.00 72.00 
C 108.96 69.29 105.28 67.43 101.00 68.00
C 102.65 70.91 103.78 73.93 105.00 77.00
C 107.75 76.42 110.17 73.97 112.00 72.00 Z"/>
</g>
<g fill="None" fill-opacity="0.0" stroke="#5B5B5B" stroke-opacity="0.69" stroke-width="0.3"><path d="
M 118.00 72.00 
C 115.21 70.98 112.91 69.43 110.00 68.00
C 113.54 70.24 113.55 70.83 118.00 72.00 Z"/>
</g>
<g fill="None" fill-opacity="0.0" stroke="#010101" stroke-opacity="0.02" stroke-width="0.3"><path d="
M 99.00 71.00 
C 96.81 73.62 94.80 82.63 100.75 81.75 C 106.70 80.88 102.01 71.18 99.00 71.00 Z"/>
</g>
<g fill="None" fill-opacity="0.0" stroke="#000000" stroke-opacity="0.02" stroke-width="0.3"><path d="
M 92.00 85.00 
C 96.49 77.15 84.69 69.41 79.00 76.00
C 82.27 80.10 86.29 85.24 92.00 85.00 Z"/>
</g>
<g fill="None" fill-opacity="0.0" stroke="#000000" stroke-opacity="0.02" stroke-width="0.3"><path d="
M 114.00 84.00 
C 114.61 83.70 119.80 78.50 120.00 78.00
C 120.30 67.73 100.64 76.96 109.00 85.00
C 110.50 84.29 112.55 84.59 114.00 84.00 Z"/>
</g>
<g fill="None" fill-opacity="0.0" stroke="#000000" stroke-opacity="0.02" stroke-width="0.3"><path d="
M 77.00 79.00 
C 75.29 80.79 74.90 82.54 75.00 85.00
C 75.65 90.11 79.68 94.85 85.00 92.00
C 84.40 89.56 84.94 86.27 84.00 84.00
C 83.47 82.94 78.99 78.70 78.00 78.00
C 77.71 77.94 77.25 78.74 77.00 79.00 Z"/>
</g>
<g fill="None" fill-opacity="0.0" stroke="#989898" stroke-opacity="0.92" stroke-width="0.3"><path d="
M 84.00 84.00 
C 83.33 82.38 79.85 78.39 78.00 78.00
C 78.99 78.70 83.47 82.94 84.00 84.00 Z"/>
</g>
<g fill="None" fill-opacity="0.0" stroke="#777777" stroke-opacity="0.83" stroke-width="0.3"><path d="
M 114.00 84.00 
C 115.75 83.29 119.44 79.91 120.00 78.00
C 119.80 78.50 114.61 83.70 114.00 84.00 Z"/>
</g>
<g fill="None" fill-opacity="0.0" stroke="#000000" stroke-opacity="0.01" stroke-width="0.3"><path d="
M 115.00 92.00 
C 122.92 96.75 128.93 81.81 122.00 78.00
C 118.09 81.97 114.72 86.18 115.00 92.00 Z"/>
</g>
<g fill="None" fill-opacity="0.0" stroke="#6F6F6F" stroke-opacity="0.76" stroke-width="0.3"><path d="
M 75.00 85.00 
C 74.90 82.54 75.29 80.79 77.00 79.00
C 73.67 80.89 74.42 82.24 75.00 85.00 Z"/>
</g>
<g fill="None" fill-opacity="0.0" stroke="#020202" stroke-opacity="0.03" stroke-width="0.3"><path d="
M 107.00 86.00 
C 107.12 83.67 106.19 81.04 104.00 80.00
C 99.76 83.08 101.78 87.03 107.00 86.00 Z"/>
</g>
<g fill="None" fill-opacity="0.0" stroke="#000000" stroke-opacity="0.00" stroke-width="0.3"><path d="
M 93.00 86.00 
C 103.61 87.42 94.37 75.79 93.00 86.00 Z"/>
</g>
<g fill="None" fill-opacity="0.0" stroke="#4C4C4C" stroke-opacity="0.50" stroke-width="0.3"><path d="
M 131.00 89.00 
C 130.10 86.48 128.21 86.05 127.00 84.00
C 127.85 85.88 130.21 87.28 131.00 89.00 Z"/>
</g>
<g fill="None" fill-opacity="0.0" stroke="#000000" stroke-opacity="0.04" stroke-width="0.3"><path d="
M 74.00 86.00 
C 69.13 88.12 70.50 94.03 69.00 98.00
C 71.98 97.88 74.05 95.13 77.00 95.00
C 77.46 91.53 74.18 89.26 74.00 86.00 Z"/>
</g>
<g fill="None" fill-opacity="0.0" stroke="#010101" stroke-opacity="0.05" stroke-width="0.3"><path d="
M 86.00 86.00 
C 85.45 95.84 95.79 85.38 86.00 86.00 Z"/>
</g>
<g fill="None" fill-opacity="0.0" stroke="#0A0A0A" stroke-opacity="0.02" stroke-width="0.3"><path d="
M 114.00 86.00 
C 103.89 84.82 114.71 96.14 114.00 86.00 Z"/>
</g>
<g fill="None" fill-opacity="0.0" stroke="#000000" stroke-opacity="0.04" stroke-width="0.3"><path d="
M 88.00 96.00 
C 88.14 96.98 87.88 98.02 88.00 99.00
C 90.67 99.00 93.33 99.00 96.00 99.00
C 96.13 97.67 97.69 95.13 99.00 95.00
C 99.84 92.63 98.37 89.45 99.00 87.00
C 93.50 87.35 89.63 90.98 88.00 96.00 Z"/>
</g>
<g fill="None" fill-opacity="0.0" stroke="#919191" stroke-opacity="0.96" stroke-width="0.3"><path d="
M 99.00 95.00 
C 100.02 94.90 101.17 95.47 102.00 96.00
C 100.43 93.24 100.02 89.14 103.00 88.00
C 101.71 87.61 100.94 86.88 99.00 87.00
C 98.37 89.45 99.84 92.63 99.00 95.00 Z"/>
</g>
<g fill="None" fill-opacity="0.0" stroke="#000000" stroke-opacity="0.02" stroke-width="0.3"><path d="
M 128.00 97.00 
C 129.80 96.81 129.61 96.69 130.00 95.00
C 130.24 92.08 129.14 89.52 128.00 87.00
C 124.07 87.16 124.00 92.26 123.00 95.00
C 124.85 94.32 126.41 97.17 128.00 97.00 Z"/>
</g>
<g fill="None" fill-opacity="0.0" stroke="#000000" stroke-opacity="0.05" stroke-width="0.3"><path d="
M 102.00 96.00 
C 103.40 96.89 103.90 97.24 104.00 99.00
C 106.23 98.01 109.66 99.74 112.00 99.00
C 112.00 98.00 112.00 97.00 112.00 96.00
C 110.33 90.72 108.00 89.51 103.00 88.00
C 100.02 89.14 100.43 93.24 102.00 96.00 Z"/>
</g>
<g fill="None" fill-opacity="0.0" stroke="#020202" stroke-opacity="0.04" stroke-width="0.3"><path d="
M 86.00 93.00 
C 75.94 94.07 88.16 103.79 86.00 93.00 Z"/>
</g>
<g fill="None" fill-opacity="0.0" stroke="#6F6F6F" stroke-opacity="0.58" stroke-width="0.3"><path d="
M 114.00 95.00 
C 114.31 93.93 116.05 93.80 117.00 94.00
C 114.85 92.82 113.10 92.37 114.00 95.00 Z"/>
</g>
<g fill="None" fill-opacity="0.0" stroke="#000000" stroke-opacity="0.00" stroke-width="0.3"><path d="
M 114.00 95.00 
C 114.15 95.45 113.85 96.55 114.00 97.00
C 114.99 98.26 118.94 97.43 119.00 96.00
C 118.93 95.16 117.81 94.17 117.00 94.00
C 116.05 93.80 114.31 93.93 114.00 95.00 Z"/>
</g>
<g fill="None" fill-opacity="0.0" stroke="#595959" stroke-opacity="0.74" stroke-width="0.3"><path d="
M 64.00 99.00 
C 66.53 98.49 67.16 96.96 68.00 95.00
C 67.32 96.28 64.03 97.35 64.00 99.00 Z"/>
</g>
<g fill="None" fill-opacity="0.0" stroke="#F3F3F3" stroke-opacity="0.99" stroke-width="0.3"><path d="
M 96.00 99.00 
C 95.95 99.50 96.00 100.50 96.00 101.00
C 96.00 101.50 96.00 102.00 96.00 102.00
C 97.06 103.50 99.28 104.05 101.00 104.00
C 101.50 103.98 102.00 104.00 102.00 104.00
C 102.84 103.87 103.88 102.81 104.00 102.00
C 104.07 101.51 104.00 101.00 104.00 101.00
C 104.00 100.50 104.03 99.50 104.00 99.00
C 103.90 97.24 103.40 96.89 102.00 96.00
C 101.17 95.47 100.02 94.90 99.00 95.00
C 97.69 95.13 96.13 97.67 96.00 99.00 Z"/>
</g>
<g fill="None" fill-opacity="0.0" stroke="#4D4D4D" stroke-opacity="0.28" stroke-width="0.3"><path d="
M 128.00 97.00 
C 131.43 97.66 130.00 97.82 130.00 95.00
C 129.61 96.69 129.80 96.81 128.00 97.00 Z"/>
</g>
<g fill="None" fill-opacity="0.0" stroke="#5D5D5D" stroke-opacity="0.70" stroke-width="0.3"><path d="
M 136.00 99.00 
C 135.10 97.09 132.81 96.73 132.00 95.00
C 133.05 97.83 133.78 97.20 136.00 99.00 Z"/>
</g>
<g fill="None" fill-opacity="0.0" stroke="#6A6A6A" stroke-opacity="0.58" stroke-width="0.3"><path d="
M 77.00 97.00 
C 78.21 97.01 81.50 97.58 82.00 99.00
C 81.48 95.65 78.44 96.74 77.00 97.00 Z"/>
</g>
<g fill="None" fill-opacity="0.0" stroke="#9B9B9B" stroke-opacity="0.99" stroke-width="0.3"><path d="
M 88.00 104.00 
C 88.10 103.01 87.92 101.99 88.00 101.00
C 90.67 101.00 93.33 101.00 96.00 101.00
C 96.00 100.50 95.95 99.50 96.00 99.00
C 93.33 99.00 90.67 99.00 88.00 99.00
C 87.88 98.02 88.14 96.98 88.00 96.00
C 87.06 98.90 86.88 101.03 88.00 104.00 Z"/>
</g>
<g fill="None" fill-opacity="0.0" stroke="#939393" stroke-opacity="0.89" stroke-width="0.3"><path d="
M 104.00 99.00 
C 104.03 99.50 104.00 100.50 104.00 101.00
C 106.07 100.81 110.84 100.22 112.00 102.00
C 112.23 102.35 112.08 103.51 112.00 104.00
C 113.08 101.06 112.94 98.96 112.00 96.00
C 112.00 97.00 112.00 98.00 112.00 99.00
C 109.66 99.74 106.23 98.01 104.00 99.00 Z"/>
</g>
<g fill="None" fill-opacity="0.0" stroke="#5F5F5F" stroke-opacity="0.20" stroke-width="0.3"><path d="
M 114.00 97.00 
C 114.98 99.81 119.22 98.57 119.00 96.00
C 118.94 97.43 114.99 98.26 114.00 97.00 Z"/>
</g>
<g fill="None" fill-opacity="0.0" stroke="#020202" stroke-opacity="0.03" stroke-width="0.3"><path d="
M 129.00 99.00 
C 126.45 97.59 118.47 94.18 118.08 99.92 C 117.70 105.66 129.27 101.92 129.00 99.00 Z"/>
</g>
<g fill="None" fill-opacity="0.0" stroke="#000000" stroke-opacity="0.04" stroke-width="0.3"><path d="
M 82.00 99.00 
C 81.50 97.58 78.21 97.01 77.00 97.00
C 74.71 96.84 73.25 99.14 71.00 99.00
C 71.42 102.75 76.66 101.72 79.00 104.00
C 79.53 102.06 82.36 101.32 82.00 99.00 Z"/>
</g>
<g fill="None" fill-opacity="0.0" stroke="#515151" stroke-opacity="0.20" stroke-width="0.3"><path d="
M 81.00 105.00 
C 81.09 103.25 85.10 100.75 86.00 103.00
C 85.57 98.84 79.25 103.28 81.00 105.00 Z"/>
</g>
<g fill="None" fill-opacity="0.0" stroke="#000000" stroke-opacity="0.01" stroke-width="0.3"><path d="
M 88.00 104.00 
C 89.32 107.49 92.48 110.67 96.00 112.00
C 96.99 111.90 98.01 112.08 99.00 112.00
C 99.58 108.10 98.83 104.64 96.00 102.00
C 96.00 102.00 96.00 101.50 96.00 101.00
C 93.33 101.00 90.67 101.00 88.00 101.00
C 87.92 101.99 88.10 103.01 88.00 104.00 Z"/>
</g>
<g fill="None" fill-opacity="0.0" stroke="#373737" stroke-opacity="0.13" stroke-width="0.3"><path d="
M 104.00 102.00 
C 106.20 102.20 110.01 101.12 112.00 102.00
C 110.84 100.22 106.07 100.81 104.00 101.00
C 104.00 101.00 104.07 101.51 104.00 102.00 Z"/>
</g>
<g fill="None" fill-opacity="0.0" stroke="#0C0C0C" stroke-opacity="0.12" stroke-width="0.3"><path d="
M 120.00 104.00 
C 116.98 99.82 112.47 101.47 114.00 107.00
C 115.91 105.75 118.69 105.98 120.00 104.00 Z"/>
</g>
<g fill="None" fill-opacity="0.0" stroke="#010101" stroke-opacity="0.04" stroke-width="0.3"><path d="
M 123.00 105.00 
C 122.75 105.27 122.80 106.60 123.00 107.00
C 125.17 108.16 124.59 111.19 126.00 113.00
C 130.96 112.01 130.57 105.07 131.00 101.00
C 128.90 102.89 124.90 102.91 123.00 105.00 Z"/>
</g>
<g fill="None" fill-opacity="0.0" stroke="#4F4F4F" stroke-opacity="0.67" stroke-width="0.3"><path d="
M 132.00 105.00 
C 132.86 103.28 135.10 102.91 136.00 101.00
C 133.84 102.75 133.08 102.30 132.00 105.00 Z"/>
</g>
<g fill="None" fill-opacity="0.0" stroke="#010101" stroke-opacity="0.06" stroke-width="0.3"><path d="
M 78.00 105.00 
C 74.71 104.85 72.45 101.53 69.00 102.00
C 70.71 105.46 69.69 109.71 72.00 113.00
C 75.88 112.61 75.64 107.47 78.00 105.00 Z"/>
</g>
<g fill="None" fill-opacity="0.0" stroke="#000000" stroke-opacity="0.00" stroke-width="0.3"><path d="
M 81.00 105.00 
C 82.53 105.93 84.17 106.23 86.00 106.00
C 85.92 105.01 86.10 103.99 86.00 103.00
C 85.10 100.75 81.09 103.25 81.00 105.00 Z"/>
</g>
<g fill="None" fill-opacity="0.0" stroke="#979797" stroke-opacity="0.95" stroke-width="0.3"><path d="
M 96.00 112.00 
C 98.87 113.09 101.08 113.08 104.00 112.00
C 103.51 112.08 102.35 112.23 102.00 112.00
C 100.27 110.88 100.82 105.99 101.00 104.00
C 99.28 104.05 97.06 103.50 96.00 102.00
C 98.83 104.64 99.58 108.10 99.00 112.00
C 98.01 112.08 96.99 111.90 96.00 112.00 Z"/>
</g>
<g fill="None" fill-opacity="0.0" stroke="#000000" stroke-opacity="0.01" stroke-width="0.3"><path d="
M 102.00 104.00 
C 102.20 106.20 101.12 110.01 102.00 112.00
C 102.35 112.23 103.51 112.08 104.00 112.00
C 107.02 111.52 111.51 107.04 112.00 104.00
C 112.08 103.51 112.23 102.35 112.00 102.00
C 110.01 101.12 106.20 102.20 104.00 102.00
C 103.88 102.81 102.84 103.87 102.00 104.00 Z"/>
</g>
<g fill="None" fill-opacity="0.0" stroke="#343434" stroke-opacity="0.05" stroke-width="0.3"><path d="
M 102.00 112.00 
C 101.12 110.01 102.20 106.20 102.00 104.00
C 102.00 104.00 101.50 103.98 101.00 104.00
C 100.82 105.99 100.27 110.88 102.00 112.00 Z"/>
</g>
<g fill="None" fill-opacity="0.0" stroke="#797979" stroke-opacity="0.64" stroke-width="0.3"><path d="
M 123.00 107.00 
C 122.80 106.60 122.75 105.27 123.00 105.00
C 121.84 106.29 122.34 105.69 123.00 107.00 Z"/>
</g>
<g fill="None" fill-opacity="0.0" stroke="#626262" stroke-opacity="0.64" stroke-width="0.3"><path d="
M 78.00 108.00 
C 78.87 107.25 79.88 107.06 81.00 107.00
C 79.12 106.70 79.77 105.98 78.00 108.00 Z"/>
</g>
<g fill="None" fill-opacity="0.0" stroke="#666666" stroke-opacity="0.59" stroke-width="0.3"><path d="
M 119.00 107.00 
C 119.50 106.96 120.66 106.77 121.00 107.00
C 119.56 105.89 120.42 106.48 119.00 107.00 Z"/>
</g>
<g fill="None" fill-opacity="0.0" stroke="#000000" stroke-opacity="0.03" stroke-width="0.3"><path d="
M 78.00 108.00 
C 75.06 111.37 72.80 123.71 79.00 120.00
C 79.88 119.35 83.55 115.82 84.00 115.00
C 83.58 112.34 84.78 110.17 86.00 108.00
C 84.08 108.56 82.76 106.91 81.00 107.00
C 79.88 107.06 78.87 107.25 78.00 108.00 Z"/>
</g>
<g fill="None" fill-opacity="0.0" stroke="#000000" stroke-opacity="0.02" stroke-width="0.3"><path d="
M 121.00 107.00 
C 120.66 106.77 119.50 106.96 119.00 107.00
C 117.69 107.54 116.56 108.41 115.00 108.00
C 114.79 113.87 117.99 117.96 122.00 122.00
C 127.38 119.69 124.98 109.71 121.00 107.00 Z"/>
</g>
<g fill="None" fill-opacity="0.0" stroke="#000000" stroke-opacity="0.00" stroke-width="0.3"><path d="
M 86.00 114.00 
C 95.51 114.48 85.89 104.35 86.00 114.00 Z"/>
</g>
<g fill="None" fill-opacity="0.0" stroke="#000000" stroke-opacity="0.01" stroke-width="0.3"><path d="
M 114.00 114.00 
C 114.03 104.31 104.54 114.54 114.00 114.00 Z"/>
</g>
<g fill="None" fill-opacity="0.0" stroke="#404040" stroke-opacity="0.52" stroke-width="0.3"><path d="
M 127.00 116.00 
C 128.20 114.05 130.15 113.51 131.00 111.00
C 130.27 112.67 127.90 114.10 127.00 116.00 Z"/>
</g>
<g fill="None" fill-opacity="0.0" stroke="#050505" stroke-opacity="0.04" stroke-width="0.3"><path d="
M 96.00 120.00 
C 100.18 116.98 98.53 112.47 93.00 114.00
C 93.26 116.22 94.53 118.51 96.00 120.00 Z"/>
</g>
<g fill="None" fill-opacity="0.0" stroke="#5C5C5C" stroke-opacity="0.24" stroke-width="0.3"><path d="
M 106.00 118.00 
C 103.87 120.22 100.61 115.54 103.00 114.00
C 98.93 115.31 103.87 121.98 106.00 118.00 Z"/>
</g>
<g fill="None" fill-opacity="0.0" stroke="#000000" stroke-opacity="0.01" stroke-width="0.3"><path d="
M 106.00 118.00 
C 105.57 116.40 107.37 115.54 107.00 114.00
C 105.76 114.30 104.21 113.61 103.00 114.00
C 100.61 115.54 103.87 120.22 106.00 118.00 Z"/>
</g>
<g fill="None" fill-opacity="0.0" stroke="#383838" stroke-opacity="0.07" stroke-width="0.3"><path d="
M 79.00 120.00 
C 80.79 118.93 83.09 117.00 84.00 115.00
C 83.55 115.82 79.88 119.35 79.00 120.00 Z"/>
</g>
<g fill="None" fill-opacity="0.0" stroke="#000000" stroke-opacity="0.03" stroke-width="0.3"><path d="
M 86.00 116.00 
C 85.32 116.36 80.24 121.42 80.00 122.00
C 77.77 129.01 89.15 126.07 92.00 123.00
C 93.09 121.29 93.12 118.74 92.00 117.00
C 90.14 115.03 89.29 114.57 86.00 116.00 Z"/>
</g>
<g fill="None" fill-opacity="0.0" stroke="#000000" stroke-opacity="0.02" stroke-width="0.3"><path d="
M 121.00 123.00 
C 117.85 122.16 116.47 117.26 114.00 116.00
C 111.73 116.54 110.23 114.48 108.00 115.00
C 100.13 122.53 120.71 131.82 121.00 123.00 Z"/>
</g>
<g fill="None" fill-opacity="0.0" stroke="#6C6C6C" stroke-opacity="0.82" stroke-width="0.3"><path d="
M 80.00 122.00 
C 80.24 121.42 85.32 116.36 86.00 116.00
C 84.20 116.78 80.63 120.03 80.00 122.00 Z"/>
</g>
<g fill="None" fill-opacity="0.0" stroke="#6A6A6A" stroke-opacity="0.79" stroke-width="0.3"><path d="
M 121.00 123.00 
C 121.05 121.33 115.48 116.62 114.00 116.00
C 116.47 117.26 117.85 122.16 121.00 123.00 Z"/>
</g>
<g fill="None" fill-opacity="0.0" stroke="#777777" stroke-opacity="0.62" stroke-width="0.3"><path d="
M 92.00 123.00 
C 94.15 120.69 94.37 119.51 92.00 117.00
C 93.12 118.74 93.09 121.29 92.00 123.00 Z"/>
</g>
<g fill="None" fill-opacity="0.0" stroke="#000000" stroke-opacity="0.03" stroke-width="0.3"><path d="
M 99.00 128.00 
C 99.27 128.25 100.66 128.23 101.00 128.00
C 102.43 125.80 102.85 123.30 104.00 121.00
C 98.53 114.48 93.76 123.22 99.00 128.00 Z"/>
</g>
<g fill="None" fill-opacity="0.0" stroke="#666666" stroke-opacity="0.91" stroke-width="0.3"><path d="
M 76.00 127.00 
C 74.63 125.62 75.33 123.02 75.00 122.00
C 75.38 123.79 72.49 125.86 76.00 127.00 Z"/>
</g>
<g fill="None" fill-opacity="0.0" stroke="#585858" stroke-opacity="0.37" stroke-width="0.3"><path d="
M 93.00 131.00 
C 91.63 130.42 89.75 128.42 89.00 127.00
C 90.85 126.03 93.24 125.21 94.00 123.00
C 91.96 124.60 89.19 125.44 88.00 128.00
C 89.67 129.28 91.04 130.37 93.00 131.00 Z"/>
</g>
<g fill="None" fill-opacity="0.0" stroke="#000000" stroke-opacity="0.02" stroke-width="0.3"><path d="
M 93.00 131.00 
C 95.27 130.46 96.77 132.52 99.00 132.00
C 97.24 130.03 97.39 123.54 94.00 123.00
C 93.24 125.21 90.85 126.03 89.00 127.00
C 89.75 128.42 91.63 130.42 93.00 131.00 Z"/>
</g>
<g fill="None" fill-opacity="0.0" stroke="#030303" stroke-opacity="0.05" stroke-width="0.3"><path d="
M 111.00 126.00 
C 105.18 120.45 102.93 126.42 101.00 132.00
C 104.72 131.13 111.65 131.77 111.00 126.00 Z"/>
</g>
<g fill="None" fill-opacity="0.0" stroke="#515151" stroke-opacity="0.76" stroke-width="0.3"><path d="
M 110.00 132.00 
C 115.68 127.66 123.69 129.15 125.00 124.00
C 122.35 128.89 114.18 126.02 110.00 132.00 Z"/>
</g>
<g fill="None" fill-opacity="0.0" stroke="#4D4D4D" stroke-opacity="0.76" stroke-width="0.3"><path d="
M 78.00 127.00 
C 82.62 127.80 85.96 130.04 90.00 132.00
C 86.41 129.74 82.41 125.24 78.00 127.00 Z"/>
</g>
<g fill="None" fill-opacity="0.0" stroke="#7F7F7F" stroke-opacity="0.52" stroke-width="0.3"><path d="
M 101.00 128.00 
C 100.66 128.23 99.27 128.25 99.00 128.00
C 100.67 130.06 99.36 130.17 101.00 128.00 Z"/>
</g>
<g fill="None" fill-opacity="0.0" stroke="#535353" stroke-opacity="0.66" stroke-width="0.3"><path d="
M 102.00 135.00 
C 104.28 133.49 107.25 134.29 109.00 132.00
C 106.03 132.55 104.11 133.12 102.00 135.00 Z"/>
</g>
<g fill="None" fill-opacity="0.0" stroke="#505050" stroke-opacity="0.54" stroke-width="0.3"><path d="
M 99.00 137.00 
C 98.12 136.82 98.17 134.60 97.22 133.78 C 96.27 132.96 94.19 133.31 93.00 133.00
C 95.02 133.87 97.33 136.89 99.00 137.00 Z"/>
</g>
<g fill="#000000" fill-opacity="0.00" stroke="None">
<path d="
M 0.00 200.00 
L 200.00 200.00
L 200.00 0.00
L 0.00 0.00
L 0.00 200.00
M 110.00 68.00 
C 112.91 69.43 115.21 70.98 118.00 72.00
C 120.70 72.99 121.74 74.45 125.00 73.00
C 125.62 76.93 126.18 79.80 127.00 84.00
C 128.21 86.05 130.10 86.48 131.00 89.00
C 131.66 90.84 131.34 93.21 132.00 95.00
C 132.81 96.73 135.10 97.09 136.00 99.00
C 136.19 99.41 136.19 100.59 136.00 101.00
C 135.10 102.91 132.86 103.28 132.00 105.00
C 131.30 106.77 131.62 109.16 131.00 111.00
C 130.15 113.51 128.20 114.05 127.00 116.00
C 125.94 118.24 125.63 121.54 125.00 124.00
C 123.69 129.15 115.68 127.66 110.00 132.00
C 109.68 132.24 109.00 132.00 109.00 132.00
C 107.25 134.29 104.28 133.49 102.00 135.00
C 100.74 136.12 101.88 137.18 99.00 137.00
C 97.33 136.89 95.02 133.87 93.00 133.00
C 92.28 132.81 90.63 132.30 90.00 132.00
C 85.96 130.04 82.62 127.80 78.00 127.00
C 77.51 126.92 76.45 127.15 76.00 127.00
C 72.49 125.86 75.38 123.79 75.00 122.00
C 72.78 115.08 67.42 110.20 68.00 102.00
C 66.07 102.49 63.63 101.26 64.00 99.00
C 64.03 97.35 67.32 96.28 68.00 95.00
C 70.80 88.45 75.50 80.04 74.00 74.00
C 77.20 72.55 79.94 74.30 83.00 72.00
C 85.26 71.05 87.56 69.05 90.00 68.00
C 91.51 67.35 93.49 67.58 95.00 67.00
C 96.47 66.28 97.13 63.18 99.00 63.00
C 100.49 62.86 107.52 66.79 110.00 68.00 Z"/>
</g>
<g fill="#6E6E6E" fill-opacity="0.85" stroke="None">
<path d="
M 95.00 67.00 
C 97.03 66.22 98.44 65.49 99.00 63.00
C 97.13 63.18 96.47 66.28 95.00 67.00 Z"/>
</g>
<g fill="#D0D0D0" fill-opacity="0.96" stroke="None">
<path d="
M 95.00 67.00 
C 93.49 67.58 91.51 67.35 90.00 68.00
C 86.99 69.66 86.66 70.88 83.00 72.00
C 79.94 74.30 77.20 72.55 74.00 74.00
C 75.50 80.04 70.80 88.45 68.00 95.00
C 67.16 96.96 66.53 98.49 64.00 99.00
C 63.63 101.26 66.07 102.49 68.00 102.00
C 67.42 110.20 72.78 115.08 75.00 122.00
C 75.33 123.02 74.63 125.62 76.00 127.00
C 76.45 127.15 77.51 126.92 78.00 127.00
C 82.41 125.24 86.41 129.74 90.00 132.00
C 90.63 132.30 92.28 132.81 93.00 133.00
C 94.19 133.31 96.27 132.96 97.22 133.78 C 98.17 134.60 98.12 136.82 99.00 137.00
C 101.88 137.18 100.74 136.12 102.00 135.00
C 104.11 133.12 106.03 132.55 109.00 132.00
C 109.00 132.00 109.68 132.24 110.00 132.00
C 114.18 126.02 122.35 128.89 125.00 124.00
C 125.63 121.54 125.94 118.24 127.00 116.00
C 127.90 114.10 130.27 112.67 131.00 111.00
C 131.62 109.16 131.30 106.77 132.00 105.00
C 133.08 102.30 133.84 102.75 136.00 101.00
C 136.19 100.59 136.19 99.41 136.00 99.00
C 133.78 97.20 133.05 97.83 132.00 95.00
C 131.34 93.21 131.66 90.84 131.00 89.00
C 130.21 87.28 127.85 85.88 127.00 84.00
C 126.18 79.80 125.62 76.93 125.00 73.00
C 121.74 74.45 120.70 72.99 118.00 72.00
C 113.55 70.83 113.54 70.24 110.00 68.00
C 107.52 66.79 100.49 62.86 99.00 63.00
C 98.44 65.49 97.03 66.22 95.00 67.00
M 89.00 73.00 
C 88.01 71.12 92.55 67.76 95.00 68.00
C 96.00 68.02 97.00 67.98 98.00 68.00
C 98.47 71.45 95.15 73.71 95.00 77.00
C 92.91 75.68 91.40 73.71 89.00 73.00
M 112.00 72.00 
C 110.17 73.97 107.75 76.42 105.00 77.00
C 103.78 73.93 102.65 70.91 101.00 68.00
C 105.28 67.43 108.96 69.29 112.00 72.00
M 99.00 71.00 
C 102.01 71.18 106.70 80.88 100.75 81.75 C 94.80 82.63 96.81 73.62 99.00 71.00
M 92.00 85.00 
C 86.29 85.24 82.27 80.10 79.00 76.00
C 84.69 69.41 96.49 77.15 92.00 85.00
M 120.00 78.00 
C 119.44 79.91 115.75 83.29 114.00 84.00
C 112.55 84.59 110.50 84.29 109.00 85.00
C 100.64 76.96 120.30 67.73 120.00 78.00
M 84.00 84.00 
C 84.94 86.27 84.40 89.56 85.00 92.00
C 79.68 94.85 75.65 90.11 75.00 85.00
C 74.42 82.24 73.67 80.89 77.00 79.00
C 77.25 78.74 77.71 77.94 78.00 78.00
C 79.85 78.39 83.33 82.38 84.00 84.00
M 115.00 92.00 
C 114.72 86.18 118.09 81.97 122.00 78.00
C 128.93 81.81 122.92 96.75 115.00 92.00
M 107.00 86.00 
C 101.78 87.03 99.76 83.08 104.00 80.00
C 106.19 81.04 107.12 83.67 107.00 86.00
M 93.00 86.00 
C 94.37 75.79 103.61 87.42 93.00 86.00
M 74.00 86.00 
C 74.18 89.26 77.46 91.53 77.00 95.00
C 74.05 95.13 71.98 97.88 69.00 98.00
C 70.50 94.03 69.13 88.12 74.00 86.00
M 86.00 86.00 
C 95.79 85.38 85.45 95.84 86.00 86.00
M 114.00 86.00 
C 114.71 96.14 103.89 84.82 114.00 86.00
M 103.00 88.00 
C 108.00 89.51 110.33 90.72 112.00 96.00
C 112.94 98.96 113.08 101.06 112.00 104.00
C 111.51 107.04 107.02 111.52 104.00 112.00
C 101.08 113.08 98.87 113.09 96.00 112.00
C 92.48 110.67 89.32 107.49 88.00 104.00
C 86.88 101.03 87.06 98.90 88.00 96.00
C 89.63 90.98 93.50 87.35 99.00 87.00
C 100.94 86.88 101.71 87.61 103.00 88.00
M 130.00 95.00 
C 130.00 97.82 131.43 97.66 128.00 97.00
C 126.41 97.17 124.85 94.32 123.00 95.00
C 124.00 92.26 124.07 87.16 128.00 87.00
C 129.14 89.52 130.24 92.08 130.00 95.00
M 86.00 93.00 
C 88.16 103.79 75.94 94.07 86.00 93.00
M 117.00 94.00 
C 117.81 94.17 118.93 95.16 119.00 96.00
C 119.22 98.57 114.98 99.81 114.00 97.00
C 113.85 96.55 114.15 95.45 114.00 95.00
C 113.10 92.37 114.85 92.82 117.00 94.00
M 82.00 99.00 
C 82.36 101.32 79.53 102.06 79.00 104.00
C 76.66 101.72 71.42 102.75 71.00 99.00
C 73.25 99.14 74.71 96.84 77.00 97.00
C 78.44 96.74 81.48 95.65 82.00 99.00
M 129.00 99.00 
C 129.27 101.92 117.70 105.66 118.08 99.92 C 118.47 94.18 126.45 97.59 129.00 99.00
M 86.00 103.00 
C 86.10 103.99 85.92 105.01 86.00 106.00
C 84.17 106.23 82.53 105.93 81.00 105.00
C 79.25 103.28 85.57 98.84 86.00 103.00
M 120.00 104.00 
C 118.69 105.98 115.91 105.75 114.00 107.00
C 112.47 101.47 116.98 99.82 120.00 104.00
M 123.00 107.00 
C 122.34 105.69 121.84 106.29 123.00 105.00
C 124.90 102.91 128.90 102.89 131.00 101.00
C 130.57 105.07 130.96 112.01 126.00 113.00
C 124.59 111.19 125.17 108.16 123.00 107.00
M 78.00 105.00 
C 75.64 107.47 75.88 112.61 72.00 113.00
C 69.69 109.71 70.71 105.46 69.00 102.00
C 72.45 101.53 74.71 104.85 78.00 105.00
M 81.00 107.00 
C 82.76 106.91 84.08 108.56 86.00 108.00
C 84.78 110.17 83.58 112.34 84.00 115.00
C 83.09 117.00 80.79 118.93 79.00 120.00
C 72.80 123.71 75.06 111.37 78.00 108.00
C 79.77 105.98 79.12 106.70 81.00 107.00
M 121.00 107.00 
C 124.98 109.71 127.38 119.69 122.00 122.00
C 117.99 117.96 114.79 113.87 115.00 108.00
C 116.56 108.41 117.69 107.54 119.00 107.00
C 120.42 106.48 119.56 105.89 121.00 107.00
M 86.00 114.00 
C 85.89 104.35 95.51 114.48 86.00 114.00
M 114.00 114.00 
C 104.54 114.54 114.03 104.31 114.00 114.00
M 96.00 120.00 
C 94.53 118.51 93.26 116.22 93.00 114.00
C 98.53 112.47 100.18 116.98 96.00 120.00
M 106.00 118.00 
C 103.87 121.98 98.93 115.31 103.00 114.00
C 104.21 113.61 105.76 114.30 107.00 114.00
C 107.37 115.54 105.57 116.40 106.00 118.00
M 92.00 117.00 
C 94.37 119.51 94.15 120.69 92.00 123.00
C 89.15 126.07 77.77 129.01 80.00 122.00
C 80.63 120.03 84.20 116.78 86.00 116.00
C 89.29 114.57 90.14 115.03 92.00 117.00
M 114.00 116.00 
C 115.48 116.62 121.05 121.33 121.00 123.00
C 120.71 131.82 100.13 122.53 108.00 115.00
C 110.23 114.48 111.73 116.54 114.00 116.00
M 101.00 128.00 
C 99.36 130.17 100.67 130.06 99.00 128.00
C 93.76 123.22 98.53 114.48 104.00 121.00
C 102.85 123.30 102.43 125.80 101.00 128.00
M 93.00 131.00 
C 91.04 130.37 89.67 129.28 88.00 128.00
C 89.19 125.44 91.96 124.60 94.00 123.00
C 97.39 123.54 97.24 130.03 99.00 132.00
C 96.77 132.52 95.27 130.46 93.00 131.00
M 111.00 126.00 
C 111.65 131.77 104.72 131.13 101.00 132.00
C 102.93 126.42 105.18 120.45 111.00 126.00 Z"/>
</g>
<g fill="#565656" fill-opacity="0.39" stroke="None">
<path d="
M 83.00 72.00 
C 86.66 70.88 86.99 69.66 90.00 68.00
C 87.56 69.05 85.26 71.05 83.00 72.00 Z"/>
</g>
<g fill="#6A6A6A" fill-opacity="0.47" stroke="None">
<path d="
M 89.00 73.00 
C 89.91 71.59 93.54 67.97 95.00 68.00
C 92.55 67.76 88.01 71.12 89.00 73.00 Z"/>
</g>
<g fill="#000000" fill-opacity="0.00" stroke="None">
<path d="
M 89.00 73.00 
C 91.40 73.71 92.91 75.68 95.00 77.00
C 95.15 73.71 98.47 71.45 98.00 68.00
C 97.00 67.98 96.00 68.02 95.00 68.00
C 93.54 67.97 89.91 71.59 89.00 73.00 Z"/>
</g>
<g fill="#020202" fill-opacity="0.06" stroke="None">
<path d="
M 112.00 72.00 
C 108.96 69.29 105.28 67.43 101.00 68.00
C 102.65 70.91 103.78 73.93 105.00 77.00
C 107.75 76.42 110.17 73.97 112.00 72.00 Z"/>
</g>
<g fill="#5B5B5B" fill-opacity="0.69" stroke="None">
<path d="
M 118.00 72.00 
C 115.21 70.98 112.91 69.43 110.00 68.00
C 113.54 70.24 113.55 70.83 118.00 72.00 Z"/>
</g>
<g fill="#010101" fill-opacity="0.02" stroke="None">
<path d="
M 99.00 71.00 
C 96.81 73.62 94.80 82.63 100.75 81.75 C 106.70 80.88 102.01 71.18 99.00 71.00 Z"/>
</g>
<g fill="#000000" fill-opacity="0.02" stroke="None">
<path d="
M 92.00 85.00 
C 96.49 77.15 84.69 69.41 79.00 76.00
C 82.27 80.10 86.29 85.24 92.00 85.00 Z"/>
</g>
<g fill="#000000" fill-opacity="0.02" stroke="None">
<path d="
M 114.00 84.00 
C 114.61 83.70 119.80 78.50 120.00 78.00
C 120.30 67.73 100.64 76.96 109.00 85.00
C 110.50 84.29 112.55 84.59 114.00 84.00 Z"/>
</g>
<g fill="#000000" fill-opacity="0.02" stroke="None">
<path d="
M 77.00 79.00 
C 75.29 80.79 74.90 82.54 75.00 85.00
C 75.65 90.11 79.68 94.85 85.00 92.00
C 84.40 89.56 84.94 86.27 84.00 84.00
C 83.47 82.94 78.99 78.70 78.00 78.00
C 77.71 77.94 77.25 78.74 77.00 79.00 Z"/>
</g>
<g fill="#989898" fill-opacity="0.92" stroke="None">
<path d="
M 84.00 84.00 
C 83.33 82.38 79.85 78.39 78.00 78.00
C 78.99 78.70 83.47 82.94 84.00 84.00 Z"/>
</g>
<g fill="#777777" fill-opacity="0.83" stroke="None">
<path d="
M 114.00 84.00 
C 115.75 83.29 119.44 79.91 120.00 78.00
C 119.80 78.50 114.61 83.70 114.00 84.00 Z"/>
</g>
<g fill="#000000" fill-opacity="0.01" stroke="None">
<path d="
M 115.00 92.00 
C 122.92 96.75 128.93 81.81 122.00 78.00
C 118.09 81.97 114.72 86.18 115.00 92.00 Z"/>
</g>
<g fill="#6F6F6F" fill-opacity="0.76" stroke="None">
<path d="
M 75.00 85.00 
C 74.90 82.54 75.29 80.79 77.00 79.00
C 73.67 80.89 74.42 82.24 75.00 85.00 Z"/>
</g>
<g fill="#020202" fill-opacity="0.03" stroke="None">
<path d="
M 107.00 86.00 
C 107.12 83.67 106.19 81.04 104.00 80.00
C 99.76 83.08 101.78 87.03 107.00 86.00 Z"/>
</g>
<g fill="#000000" fill-opacity="0.00" stroke="None">
<path d="
M 93.00 86.00 
C 103.61 87.42 94.37 75.79 93.00 86.00 Z"/>
</g>
<g fill="#4C4C4C" fill-opacity="0.50" stroke="None">
<path d="
M 131.00 89.00 
C 130.10 86.48 128.21 86.05 127.00 84.00
C 127.85 85.88 130.21 87.28 131.00 89.00 Z"/>
</g>
<g fill="#000000" fill-opacity="0.04" stroke="None">
<path d="
M 74.00 86.00 
C 69.13 88.12 70.50 94.03 69.00 98.00
C 71.98 97.88 74.05 95.13 77.00 95.00
C 77.46 91.53 74.18 89.26 74.00 86.00 Z"/>
</g>
<g fill="#010101" fill-opacity="0.05" stroke="None">
<path d="
M 86.00 86.00 
C 85.45 95.84 95.79 85.38 86.00 86.00 Z"/>
</g>
<g fill="#0A0A0A" fill-opacity="0.02" stroke="None">
<path d="
M 114.00 86.00 
C 103.89 84.82 114.71 96.14 114.00 86.00 Z"/>
</g>
<g fill="#000000" fill-opacity="0.04" stroke="None">
<path d="
M 88.00 96.00 
C 88.14 96.98 87.88 98.02 88.00 99.00
C 90.67 99.00 93.33 99.00 96.00 99.00
C 96.13 97.67 97.69 95.13 99.00 95.00
C 99.84 92.63 98.37 89.45 99.00 87.00
C 93.50 87.35 89.63 90.98 88.00 96.00 Z"/>
</g>
<g fill="#919191" fill-opacity="0.96" stroke="None">
<path d="
M 99.00 95.00 
C 100.02 94.90 101.17 95.47 102.00 96.00
C 100.43 93.24 100.02 89.14 103.00 88.00
C 101.71 87.61 100.94 86.88 99.00 87.00
C 98.37 89.45 99.84 92.63 99.00 95.00 Z"/>
</g>
<g fill="#000000" fill-opacity="0.02" stroke="None">
<path d="
M 128.00 97.00 
C 129.80 96.81 129.61 96.69 130.00 95.00
C 130.24 92.08 129.14 89.52 128.00 87.00
C 124.07 87.16 124.00 92.26 123.00 95.00
C 124.85 94.32 126.41 97.17 128.00 97.00 Z"/>
</g>
<g fill="#000000" fill-opacity="0.05" stroke="None">
<path d="
M 102.00 96.00 
C 103.40 96.89 103.90 97.24 104.00 99.00
C 106.23 98.01 109.66 99.74 112.00 99.00
C 112.00 98.00 112.00 97.00 112.00 96.00
C 110.33 90.72 108.00 89.51 103.00 88.00
C 100.02 89.14 100.43 93.24 102.00 96.00 Z"/>
</g>
<g fill="#020202" fill-opacity="0.04" stroke="None">
<path d="
M 86.00 93.00 
C 75.94 94.07 88.16 103.79 86.00 93.00 Z"/>
</g>
<g fill="#6F6F6F" fill-opacity="0.58" stroke="None">
<path d="
M 114.00 95.00 
C 114.31 93.93 116.05 93.80 117.00 94.00
C 114.85 92.82 113.10 92.37 114.00 95.00 Z"/>
</g>
<g fill="#000000" fill-opacity="0.00" stroke="None">
<path d="
M 114.00 95.00 
C 114.15 95.45 113.85 96.55 114.00 97.00
C 114.99 98.26 118.94 97.43 119.00 96.00
C 118.93 95.16 117.81 94.17 117.00 94.00
C 116.05 93.80 114.31 93.93 114.00 95.00 Z"/>
</g>
<g fill="#595959" fill-opacity="0.74" stroke="None">
<path d="
M 64.00 99.00 
C 66.53 98.49 67.16 96.96 68.00 95.00
C 67.32 96.28 64.03 97.35 64.00 99.00 Z"/>
</g>
<g fill="#F3F3F3" fill-opacity="0.99" stroke="None">
<path d="
M 96.00 99.00 
C 95.95 99.50 96.00 100.50 96.00 101.00
C 96.00 101.50 96.00 102.00 96.00 102.00
C 97.06 103.50 99.28 104.05 101.00 104.00
C 101.50 103.98 102.00 104.00 102.00 104.00
C 102.84 103.87 103.88 102.81 104.00 102.00
C 104.07 101.51 104.00 101.00 104.00 101.00
C 104.00 100.50 104.03 99.50 104.00 99.00
C 103.90 97.24 103.40 96.89 102.00 96.00
C 101.17 95.47 100.02 94.90 99.00 95.00
C 97.69 95.13 96.13 97.67 96.00 99.00 Z"/>
</g>
<g fill="#4D4D4D" fill-opacity="0.28" stroke="None">
<path d="
M 128.00 97.00 
C 131.43 97.66 130.00 97.82 130.00 95.00
C 129.61 96.69 129.80 96.81 128.00 97.00 Z"/>
</g>
<g fill="#5D5D5D" fill-opacity="0.70" stroke="None">
<path d="
M 136.00 99.00 
C 135.10 97.09 132.81 96.73 132.00 95.00
C 133.05 97.83 133.78 97.20 136.00 99.00 Z"/>
</g>
<g fill="#6A6A6A" fill-opacity="0.58" stroke="None">
<path d="
M 77.00 97.00 
C 78.21 97.01 81.50 97.58 82.00 99.00
C 81.48 95.65 78.44 96.74 77.00 97.00 Z"/>
</g>
<g fill="#9B9B9B" fill-opacity="0.99" stroke="None">
<path d="
M 88.00 104.00 
C 88.10 103.01 87.92 101.99 88.00 101.00
C 90.67 101.00 93.33 101.00 96.00 101.00
C 96.00 100.50 95.95 99.50 96.00 99.00
C 93.33 99.00 90.67 99.00 88.00 99.00
C 87.88 98.02 88.14 96.98 88.00 96.00
C 87.06 98.90 86.88 101.03 88.00 104.00 Z"/>
</g>
<g fill="#939393" fill-opacity="0.89" stroke="None">
<path d="
M 104.00 99.00 
C 104.03 99.50 104.00 100.50 104.00 101.00
C 106.07 100.81 110.84 100.22 112.00 102.00
C 112.23 102.35 112.08 103.51 112.00 104.00
C 113.08 101.06 112.94 98.96 112.00 96.00
C 112.00 97.00 112.00 98.00 112.00 99.00
C 109.66 99.74 106.23 98.01 104.00 99.00 Z"/>
</g>
<g fill="#5F5F5F" fill-opacity="0.20" stroke="None">
<path d="
M 114.00 97.00 
C 114.98 99.81 119.22 98.57 119.00 96.00
C 118.94 97.43 114.99 98.26 114.00 97.00 Z"/>
</g>
<g fill="#020202" fill-opacity="0.03" stroke="None">
<path d="
M 129.00 99.00 
C 126.45 97.59 118.47 94.18 118.08 99.92 C 117.70 105.66 129.27 101.92 129.00 99.00 Z"/>
</g>
<g fill="#000000" fill-opacity="0.04" stroke="None">
<path d="
M 82.00 99.00 
C 81.50 97.58 78.21 97.01 77.00 97.00
C 74.71 96.84 73.25 99.14 71.00 99.00
C 71.42 102.75 76.66 101.72 79.00 104.00
C 79.53 102.06 82.36 101.32 82.00 99.00 Z"/>
</g>
<g fill="#515151" fill-opacity="0.20" stroke="None">
<path d="
M 81.00 105.00 
C 81.09 103.25 85.10 100.75 86.00 103.00
C 85.57 98.84 79.25 103.28 81.00 105.00 Z"/>
</g>
<g fill="#000000" fill-opacity="0.01" stroke="None">
<path d="
M 88.00 104.00 
C 89.32 107.49 92.48 110.67 96.00 112.00
C 96.99 111.90 98.01 112.08 99.00 112.00
C 99.58 108.10 98.83 104.64 96.00 102.00
C 96.00 102.00 96.00 101.50 96.00 101.00
C 93.33 101.00 90.67 101.00 88.00 101.00
C 87.92 101.99 88.10 103.01 88.00 104.00 Z"/>
</g>
<g fill="#373737" fill-opacity="0.13" stroke="None">
<path d="
M 104.00 102.00 
C 106.20 102.20 110.01 101.12 112.00 102.00
C 110.84 100.22 106.07 100.81 104.00 101.00
C 104.00 101.00 104.07 101.51 104.00 102.00 Z"/>
</g>
<g fill="#0C0C0C" fill-opacity="0.12" stroke="None">
<path d="
M 120.00 104.00 
C 116.98 99.82 112.47 101.47 114.00 107.00
C 115.91 105.75 118.69 105.98 120.00 104.00 Z"/>
</g>
<g fill="#010101" fill-opacity="0.04" stroke="None">
<path d="
M 123.00 105.00 
C 122.75 105.27 122.80 106.60 123.00 107.00
C 125.17 108.16 124.59 111.19 126.00 113.00
C 130.96 112.01 130.57 105.07 131.00 101.00
C 128.90 102.89 124.90 102.91 123.00 105.00 Z"/>
</g>
<g fill="#4F4F4F" fill-opacity="0.67" stroke="None">
<path d="
M 132.00 105.00 
C 132.86 103.28 135.10 102.91 136.00 101.00
C 133.84 102.75 133.08 102.30 132.00 105.00 Z"/>
</g>
<g fill="#010101" fill-opacity="0.06" stroke="None">
<path d="
M 78.00 105.00 
C 74.71 104.85 72.45 101.53 69.00 102.00
C 70.71 105.46 69.69 109.71 72.00 113.00
C 75.88 112.61 75.64 107.47 78.00 105.00 Z"/>
</g>
<g fill="#000000" fill-opacity="0.00" stroke="None">
<path d="
M 81.00 105.00 
C 82.53 105.93 84.17 106.23 86.00 106.00
C 85.92 105.01 86.10 103.99 86.00 103.00
C 85.10 100.75 81.09 103.25 81.00 105.00 Z"/>
</g>
<g fill="#979797" fill-opacity="0.95" stroke="None">
<path d="
M 96.00 112.00 
C 98.87 113.09 101.08 113.08 104.00 112.00
C 103.51 112.08 102.35 112.23 102.00 112.00
C 100.27 110.88 100.82 105.99 101.00 104.00
C 99.28 104.05 97.06 103.50 96.00 102.00
C 98.83 104.64 99.58 108.10 99.00 112.00
C 98.01 112.08 96.99 111.90 96.00 112.00 Z"/>
</g>
<g fill="#000000" fill-opacity="0.01" stroke="None">
<path d="
M 102.00 104.00 
C 102.20 106.20 101.12 110.01 102.00 112.00
C 102.35 112.23 103.51 112.08 104.00 112.00
C 107.02 111.52 111.51 107.04 112.00 104.00
C 112.08 103.51 112.23 102.35 112.00 102.00
C 110.01 101.12 106.20 102.20 104.00 102.00
C 103.88 102.81 102.84 103.87 102.00 104.00 Z"/>
</g>
<g fill="#343434" fill-opacity="0.05" stroke="None">
<path d="
M 102.00 112.00 
C 101.12 110.01 102.20 106.20 102.00 104.00
C 102.00 104.00 101.50 103.98 101.00 104.00
C 100.82 105.99 100.27 110.88 102.00 112.00 Z"/>
</g>
<g fill="#797979" fill-opacity="0.64" stroke="None">
<path d="
M 123.00 107.00 
C 122.80 106.60 122.75 105.27 123.00 105.00
C 121.84 106.29 122.34 105.69 123.00 107.00 Z"/>
</g>
<g fill="#626262" fill-opacity="0.64" stroke="None">
<path d="
M 78.00 108.00 
C 78.87 107.25 79.88 107.06 81.00 107.00
C 79.12 106.70 79.77 105.98 78.00 108.00 Z"/>
</g>
<g fill="#666666" fill-opacity="0.59" stroke="None">
<path d="
M 119.00 107.00 
C 119.50 106.96 120.66 106.77 121.00 107.00
C 119.56 105.89 120.42 106.48 119.00 107.00 Z"/>
</g>
<g fill="#000000" fill-opacity="0.03" stroke="None">
<path d="
M 78.00 108.00 
C 75.06 111.37 72.80 123.71 79.00 120.00
C 79.88 119.35 83.55 115.82 84.00 115.00
C 83.58 112.34 84.78 110.17 86.00 108.00
C 84.08 108.56 82.76 106.91 81.00 107.00
C 79.88 107.06 78.87 107.25 78.00 108.00 Z"/>
</g>
<g fill="#000000" fill-opacity="0.02" stroke="None">
<path d="
M 121.00 107.00 
C 120.66 106.77 119.50 106.96 119.00 107.00
C 117.69 107.54 116.56 108.41 115.00 108.00
C 114.79 113.87 117.99 117.96 122.00 122.00
C 127.38 119.69 124.98 109.71 121.00 107.00 Z"/>
</g>
<g fill="#000000" fill-opacity="0.00" stroke="None">
<path d="
M 86.00 114.00 
C 95.51 114.48 85.89 104.35 86.00 114.00 Z"/>
</g>
<g fill="#000000" fill-opacity="0.01" stroke="None">
<path d="
M 114.00 114.00 
C 114.03 104.31 104.54 114.54 114.00 114.00 Z"/>
</g>
<g fill="#404040" fill-opacity="0.52" stroke="None">
<path d="
M 127.00 116.00 
C 128.20 114.05 130.15 113.51 131.00 111.00
C 130.27 112.67 127.90 114.10 127.00 116.00 Z"/>
</g>
<g fill="#050505" fill-opacity="0.04" stroke="None">
<path d="
M 96.00 120.00 
C 100.18 116.98 98.53 112.47 93.00 114.00
C 93.26 116.22 94.53 118.51 96.00 120.00 Z"/>
</g>
<g fill="#5C5C5C" fill-opacity="0.24" stroke="None">
<path d="
M 106.00 118.00 
C 103.87 120.22 100.61 115.54 103.00 114.00
C 98.93 115.31 103.87 121.98 106.00 118.00 Z"/>
</g>
<g fill="#000000" fill-opacity="0.01" stroke="None">
<path d="
M 106.00 118.00 
C 105.57 116.40 107.37 115.54 107.00 114.00
C 105.76 114.30 104.21 113.61 103.00 114.00
C 100.61 115.54 103.87 120.22 106.00 118.00 Z"/>
</g>
<g fill="#383838" fill-opacity="0.07" stroke="None">
<path d="
M 79.00 120.00 
C 80.79 118.93 83.09 117.00 84.00 115.00
C 83.55 115.82 79.88 119.35 79.00 120.00 Z"/>
</g>
<g fill="#000000" fill-opacity="0.03" stroke="None">
<path d="
M 86.00 116.00 
C 85.32 116.36 80.24 121.42 80.00 122.00
C 77.77 129.01 89.15 126.07 92.00 123.00
C 93.09 121.29 93.12 118.74 92.00 117.00
C 90.14 115.03 89.29 114.57 86.00 116.00 Z"/>
</g>
<g fill="#000000" fill-opacity="0.02" stroke="None">
<path d="
M 121.00 123.00 
C 117.85 122.16 116.47 117.26 114.00 116.00
C 111.73 116.54 110.23 114.48 108.00 115.00
C 100.13 122.53 120.71 131.82 121.00 123.00 Z"/>
</g>
<g fill="#6C6C6C" fill-opacity="0.82" stroke="None">
<path d="
M 80.00 122.00 
C 80.24 121.42 85.32 116.36 86.00 116.00
C 84.20 116.78 80.63 120.03 80.00 122.00 Z"/>
</g>
<g fill="#6A6A6A" fill-opacity="0.79" stroke="None">
<path d="
M 121.00 123.00 
C 121.05 121.33 115.48 116.62 114.00 116.00
C 116.47 117.26 117.85 122.16 121.00 123.00 Z"/>
</g>
<g fill="#777777" fill-opacity="0.62" stroke="None">
<path d="
M 92.00 123.00 
C 94.15 120.69 94.37 119.51 92.00 117.00
C 93.12 118.74 93.09 121.29 92.00 123.00 Z"/>
</g>
<g fill="#000000" fill-opacity="0.03" stroke="None">
<path d="
M 99.00 128.00 
C 99.27 128.25 100.66 128.23 101.00 128.00
C 102.43 125.80 102.85 123.30 104.00 121.00
C 98.53 114.48 93.76 123.22 99.00 128.00 Z"/>
</g>
<g fill="#666666" fill-opacity="0.91" stroke="None">
<path d="
M 76.00 127.00 
C 74.63 125.62 75.33 123.02 75.00 122.00
C 75.38 123.79 72.49 125.86 76.00 127.00 Z"/>
</g>
<g fill="#585858" fill-opacity="0.37" stroke="None">
<path d="
M 93.00 131.00 
C 91.63 130.42 89.75 128.42 89.00 127.00
C 90.85 126.03 93.24 125.21 94.00 123.00
C 91.96 124.60 89.19 125.44 88.00 128.00
C 89.67 129.28 91.04 130.37 93.00 131.00 Z"/>
</g>
<g fill="#000000" fill-opacity="0.02" stroke="None">
<path d="
M 93.00 131.00 
C 95.27 130.46 96.77 132.52 99.00 132.00
C 97.24 130.03 97.39 123.54 94.00 123.00
C 93.24 125.21 90.85 126.03 89.00 127.00
C 89.75 128.42 91.63 130.42 93.00 131.00 Z"/>
</g>
<g fill="#030303" fill-opacity="0.05" stroke="None">
<path d="
M 111.00 126.00 
C 105.18 120.45 102.93 126.42 101.00 132.00
C 104.72 131.13 111.65 131.77 111.00 126.00 Z"/>
</g>
<g fill="#515151" fill-opacity="0.76" stroke="None">
<path d="
M 110.00 132.00 
C 115.68 127.66 123.69 129.15 125.00 124.00
C 122.35 128.89 114.18 126.02 110.00 132.00 Z"/>
</g>
<g fill="#4D4D4D" fill-opacity="0.76" stroke="None">
<path d="
M 78.00 127.00 
C 82.62 127.80 85.96 130.04 90.00 132.00
C 86.41 129.74 82.41 125.24 78.00 127.00 Z"/>
</g>
<g fill="#7F7F7F" fill-opacity="0.52" stroke="None">
<path d="
M 101.00 128.00 
C 100.66 128.23 99.27 128.25 99.00 128.00
C 100.67 130.06 99.36 130.17 101.00 128.00 Z"/>
</g>
<g fill="#535353" fill-opacity="0.66" stroke="None">
<path d="
M 102.00 135.00 
C 104.28 133.49 107.25 134.29 109.00 132.00
C 106.03 132.55 104.11 133.12 102.00 135.00 Z"/>
</g>
<g fill="#505050" fill-opacity="0.54" stroke="None">
<path d="
M 99.00 137.00 
C 98.12 136.82 98.17 134.60 97.22 133.78 C 96.27 132.96 94.19 133.31 93.00 133.00
C 95.02 133.87 97.33 136.89 99.00 137.00 Z"/>
</g>
</svg>