<svg xmlns="http://www.w3.org/2000/svg" width="1920" height="1080" viewBox="0 0 1920 1080"><rect width="100%" height="100%" fill="#FFFFFF"/><path fill="#000000" d="M387.645 504.87h19.66v48.3q0 7.24 3.57 11.15 3.56 3.91 10.46 3.91t10.58-3.91 3.68-11.15v-48.3h19.67v48.18q0 10.82-4.6 18.29t-12.36 11.27q-7.77 3.8-17.31 3.8-9.55 0-17.08-3.74t-11.9-11.27-4.37-18.35zm120.52 15.87q11.27 0 18 7.3 6.72 7.3 6.72 20.07v37.49h-19.55v-34.84q0-6.45-3.33-10.01-3.34-3.56-8.97-3.56-5.64 0-8.97 3.56-3.34 3.56-3.34 10.01v34.84h-19.66v-64.17h19.66v8.51q2.99-4.25 8.05-6.73 5.06-2.47 11.39-2.47m34.5 32.66q0-9.89 3.74-17.37 3.73-7.47 10.17-11.5 6.44-4.02 14.38-4.02 6.32 0 11.56 2.64 5.23 2.65 8.22 7.13V500.5h19.66v85.1h-19.66v-9.2q-2.76 4.6-7.88 7.36t-11.9 2.76q-7.94 0-14.38-4.08-6.44-4.09-10.17-11.62-3.74-7.53-3.74-17.42m48.07.11q0-7.36-4.08-11.61-4.09-4.26-9.95-4.26-5.87 0-9.95 4.2t-4.08 11.56 4.08 11.67q4.08 4.32 9.95 4.32 5.86 0 9.95-4.26 4.08-4.26 4.08-11.62m94.41-1.03q0 2.76-.34 5.75h-44.51q.46 5.98 3.86 9.14 3.39 3.16 8.33 3.16 7.36 0 10.24-6.21h20.93q-1.61 6.33-5.81 11.39t-10.52 7.93q-6.33 2.88-14.15 2.88-9.43 0-16.79-4.02-7.36-4.03-11.5-11.51-4.14-7.47-4.14-17.48 0-10 4.09-17.48 4.08-7.47 11.44-11.5 7.36-4.02 16.9-4.02 9.32 0 16.56 3.91 7.25 3.91 11.33 11.15 4.08 7.25 4.08 16.91m-44.73-5.18h24.61q0-5.06-3.45-8.04-3.45-3-8.63-3-4.94 0-8.33 2.88-3.4 2.87-4.2 8.16m74.75-15.18q3.45-5.29 8.62-8.33 5.18-3.05 11.5-3.05v20.81h-5.4q-7.36 0-11.04 3.17-3.68 3.16-3.68 11.09v29.79h-19.67v-64.17h19.67zm50.6 13q0-11.96 5.17-21.33 5.18-9.38 14.44-14.61 9.25-5.23 20.98-5.23 14.38 0 24.61 7.59 10.24 7.59 13.69 20.7h-21.62q-2.42-5.06-6.84-7.71-4.43-2.64-10.07-2.64-9.08 0-14.72 6.32-5.63 6.33-5.63 16.91t5.63 16.91q5.64 6.32 14.72 6.32 5.64 0 10.07-2.64 4.42-2.65 6.84-7.71h21.62q-3.45 13.11-13.69 20.64-10.23 7.54-24.61 7.54-11.73 0-20.98-5.24-9.26-5.23-14.44-14.55-5.17-9.31-5.17-21.27m120.17 41.4q-9.43 0-16.96-4.02-7.53-4.03-11.84-11.51-4.32-7.47-4.32-17.48 0-9.89 4.37-17.42t11.96-11.56q7.59-4.02 17.02-4.02t17.02 4.02q7.59 4.03 11.96 11.56t4.37 17.42-4.42 17.43q-4.43 7.53-12.08 11.56-7.65 4.02-17.08 4.02m0-17.02q5.64 0 9.61-4.14 3.96-4.14 3.96-11.85 0-7.7-3.85-11.84t-9.49-4.14q-5.75 0-9.54 4.08-3.8 4.08-3.8 11.9 0 7.71 3.74 11.85t9.37 4.14m83.15-48.76q11.27 0 18 7.3 6.72 7.3 6.72 20.07v37.49h-19.55v-34.84q0-6.45-3.33-10.01-3.34-3.56-8.97-3.56-5.64 0-8.97 3.56-3.34 3.56-3.34 10.01v34.84h-19.66v-64.17h19.66v8.51q2.99-4.25 8.05-6.73 5.06-2.47 11.39-2.47m64.51 65.78q-8.39 0-14.95-2.88-6.55-2.87-10.35-7.87-3.79-5.01-4.25-11.22h19.43q.35 3.34 3.11 5.41t6.78 2.07q3.68 0 5.7-1.44 2.01-1.44 2.01-3.74 0-2.76-2.88-4.08-2.87-1.32-9.31-2.93-6.9-1.61-11.5-3.39-4.6-1.79-7.94-5.64-3.33-3.85-3.33-10.41 0-5.52 3.05-10.06 3.04-4.54 8.97-7.19 5.92-2.64 14.08-2.64 12.08 0 19.04 5.98 6.95 5.98 7.99 15.87h-18.17q-.46-3.34-2.93-5.29-2.48-1.95-6.5-1.95-3.45 0-5.29 1.32t-1.84 3.62q0 2.76 2.93 4.14t9.14 2.76q7.13 1.84 11.62 3.62 4.48 1.79 7.88 5.75 3.39 3.97 3.5 10.64 0 5.63-3.16 10.06t-9.08 6.96q-5.93 2.53-13.75 2.53m66.82-17.6h7.01v16.68h-10q-10.7 0-16.68-5.23t-5.98-17.08v-25.53h-7.82v-16.33h7.82v-15.64h19.67v15.64h12.88v16.33h-12.88v25.76q0 2.87 1.38 4.14 1.38 1.26 4.6 1.26m37.6-36.8q3.45-5.29 8.63-8.33 5.17-3.05 11.5-3.05v20.81h-5.41q-7.36 0-11.04 3.17-3.68 3.16-3.68 11.09v29.79h-19.66v-64.17h19.66zm73.26-10.69h19.66v64.17h-19.66v-8.74q-2.99 4.25-8.11 6.84t-11.33 2.59q-7.36 0-12.99-3.28-5.64-3.28-8.74-9.49-3.11-6.21-3.11-14.6v-37.49h19.55v34.84q0 6.44 3.34 10.01 3.33 3.56 8.97 3.56 5.75 0 9.08-3.56 3.34-3.57 3.34-10.01zm29.9 32.08q0-10 4.08-17.48 4.08-7.47 11.39-11.5 7.3-4.02 16.73-4.02 12.07 0 20.18 6.32 8.11 6.33 10.64 17.83h-20.93q-2.65-7.36-10.24-7.36-5.4 0-8.62 4.2-3.22 4.19-3.22 12.01t3.22 12.02 8.62 4.2q7.59 0 10.24-7.36h20.93q-2.53 11.27-10.7 17.71-8.16 6.44-20.12 6.44-9.43 0-16.73-4.02-7.31-4.03-11.39-11.51-4.08-7.47-4.08-17.48m102.23 15.41h7.02v16.68h-10.01q-10.69 0-16.67-5.23t-5.98-17.08v-25.53h-7.82v-16.33h7.82v-15.64h19.66v15.64h12.88v16.33h-12.88v25.76q0 2.87 1.38 4.14 1.38 1.26 4.6 1.26m27.83-54.16q-5.17 0-8.45-3.05t-3.28-7.53q0-4.6 3.28-7.65t8.45-3.05q5.06 0 8.34 3.05t3.28 7.65q0 4.48-3.28 7.53t-8.34 3.05m-9.89 6.67h19.67v64.17h-19.67zm63.14 65.09q-9.43 0-16.96-4.02-7.54-4.03-11.85-11.51-4.31-7.47-4.31-17.48 0-9.89 4.37-17.42t11.96-11.56q7.59-4.02 17.02-4.02t17.02 4.02q7.59 4.03 11.96 11.56t4.37 17.42-4.43 17.43q-4.43 7.53-12.07 11.56-7.65 4.02-17.08 4.02m0-17.02q5.63 0 9.6-4.14t3.97-11.85q0-7.7-3.85-11.84-3.86-4.14-9.49-4.14-5.75 0-9.55 4.08-3.79 4.08-3.79 11.9 0 7.71 3.74 11.85 3.73 4.14 9.37 4.14m83.14-48.76q11.27 0 18 7.3t6.73 20.07v37.49h-19.55v-34.84q0-6.45-3.34-10.01-3.33-3.56-8.97-3.56-5.63 0-8.97 3.56-3.33 3.56-3.33 10.01v34.84h-19.67v-64.17h19.67v8.51q2.99-4.25 8.05-6.73 5.06-2.47 11.38-2.47"/></svg>